<mxfile host="app.diagrams.net" modified="2024-06-11T04:58:50.226Z" agent="Mozilla/5.0 (Windows NT 10.0; Win64; x64) AppleWebKit/537.36 (KHTML, like Gecko) Chrome/125.0.0.0 Safari/537.36" etag="_mICJsFpg0jWPLwhXfDB" version="24.4.13" type="device">
  <diagram name="Page-1" id="oU-Ls_2aFCREJKez1NIy">
    <mxGraphModel dx="1244" dy="1573" grid="1" gridSize="10" guides="1" tooltips="1" connect="1" arrows="1" fold="1" page="1" pageScale="1" pageWidth="850" pageHeight="1100" math="0" shadow="0">
      <root>
        <mxCell id="0" />
        <mxCell id="1" parent="0" />
        <mxCell id="5007eKSaucRuR3BvJsnx-27" value="Roles" style="swimlane;fontStyle=0;childLayout=stackLayout;horizontal=1;startSize=26;fillColor=none;horizontalStack=0;resizeParent=1;resizeParentMax=0;resizeLast=0;collapsible=1;marginBottom=0;whiteSpace=wrap;html=1;" parent="1" vertex="1">
          <mxGeometry x="140" y="-210" width="140" height="78" as="geometry" />
        </mxCell>
        <mxCell id="5007eKSaucRuR3BvJsnx-28" value="Id (PK)" style="text;strokeColor=none;fillColor=none;align=left;verticalAlign=top;spacingLeft=4;spacingRight=4;overflow=hidden;rotatable=0;points=[[0,0.5],[1,0.5]];portConstraint=eastwest;whiteSpace=wrap;html=1;" parent="5007eKSaucRuR3BvJsnx-27" vertex="1">
          <mxGeometry y="26" width="140" height="26" as="geometry" />
        </mxCell>
        <mxCell id="5007eKSaucRuR3BvJsnx-29" value="Name&amp;nbsp;" style="text;strokeColor=none;fillColor=none;align=left;verticalAlign=top;spacingLeft=4;spacingRight=4;overflow=hidden;rotatable=0;points=[[0,0.5],[1,0.5]];portConstraint=eastwest;whiteSpace=wrap;html=1;" parent="5007eKSaucRuR3BvJsnx-27" vertex="1">
          <mxGeometry y="52" width="140" height="26" as="geometry" />
        </mxCell>
        <mxCell id="5007eKSaucRuR3BvJsnx-31" value="Users" style="swimlane;fontStyle=0;childLayout=stackLayout;horizontal=1;startSize=26;fillColor=none;horizontalStack=0;resizeParent=1;resizeParentMax=0;resizeLast=0;collapsible=1;marginBottom=0;whiteSpace=wrap;html=1;" parent="1" vertex="1">
          <mxGeometry x="350" y="-390" width="140" height="110" as="geometry" />
        </mxCell>
        <mxCell id="5007eKSaucRuR3BvJsnx-32" value="Id (PK)" style="text;strokeColor=none;fillColor=none;align=left;verticalAlign=top;spacingLeft=4;spacingRight=4;overflow=hidden;rotatable=0;points=[[0,0.5],[1,0.5]];portConstraint=eastwest;whiteSpace=wrap;html=1;" parent="5007eKSaucRuR3BvJsnx-31" vertex="1">
          <mxGeometry y="26" width="140" height="26" as="geometry" />
        </mxCell>
        <mxCell id="5007eKSaucRuR3BvJsnx-33" value="RoleId (FK)&lt;div&gt;&lt;br&gt;&lt;/div&gt;&lt;div&gt;Name&lt;/div&gt;" style="text;strokeColor=none;fillColor=none;align=left;verticalAlign=top;spacingLeft=4;spacingRight=4;overflow=hidden;rotatable=0;points=[[0,0.5],[1,0.5]];portConstraint=eastwest;whiteSpace=wrap;html=1;" parent="5007eKSaucRuR3BvJsnx-31" vertex="1">
          <mxGeometry y="52" width="140" height="58" as="geometry" />
        </mxCell>
        <mxCell id="5007eKSaucRuR3BvJsnx-34" value="UsersCredentials" style="swimlane;fontStyle=0;childLayout=stackLayout;horizontal=1;startSize=26;fillColor=none;horizontalStack=0;resizeParent=1;resizeParentMax=0;resizeLast=0;collapsible=1;marginBottom=0;whiteSpace=wrap;html=1;" parent="1" vertex="1">
          <mxGeometry x="120" y="-370" width="140" height="110" as="geometry" />
        </mxCell>
        <mxCell id="5007eKSaucRuR3BvJsnx-35" value="UserId (PK)" style="text;strokeColor=none;fillColor=none;align=left;verticalAlign=top;spacingLeft=4;spacingRight=4;overflow=hidden;rotatable=0;points=[[0,0.5],[1,0.5]];portConstraint=eastwest;whiteSpace=wrap;html=1;" parent="5007eKSaucRuR3BvJsnx-34" vertex="1">
          <mxGeometry y="26" width="140" height="26" as="geometry" />
        </mxCell>
        <mxCell id="5007eKSaucRuR3BvJsnx-36" value="&lt;div&gt;EmailAddress&lt;/div&gt;&lt;div&gt;&lt;br&gt;&lt;/div&gt;&lt;div&gt;Password&lt;/div&gt;" style="text;strokeColor=none;fillColor=none;align=left;verticalAlign=top;spacingLeft=4;spacingRight=4;overflow=hidden;rotatable=0;points=[[0,0.5],[1,0.5]];portConstraint=eastwest;whiteSpace=wrap;html=1;" parent="5007eKSaucRuR3BvJsnx-34" vertex="1">
          <mxGeometry y="52" width="140" height="58" as="geometry" />
        </mxCell>
        <mxCell id="5007eKSaucRuR3BvJsnx-37" value="UserFoodHistory" style="swimlane;fontStyle=0;childLayout=stackLayout;horizontal=1;startSize=26;fillColor=none;horizontalStack=0;resizeParent=1;resizeParentMax=0;resizeLast=0;collapsible=1;marginBottom=0;whiteSpace=wrap;html=1;" parent="1" vertex="1">
          <mxGeometry x="590" y="-390" width="140" height="140" as="geometry" />
        </mxCell>
        <mxCell id="5007eKSaucRuR3BvJsnx-38" value="Id (PK)" style="text;strokeColor=none;fillColor=none;align=left;verticalAlign=top;spacingLeft=4;spacingRight=4;overflow=hidden;rotatable=0;points=[[0,0.5],[1,0.5]];portConstraint=eastwest;whiteSpace=wrap;html=1;" parent="5007eKSaucRuR3BvJsnx-37" vertex="1">
          <mxGeometry y="26" width="140" height="26" as="geometry" />
        </mxCell>
        <mxCell id="5007eKSaucRuR3BvJsnx-39" value="&lt;div&gt;UserId (FK)&lt;/div&gt;&lt;div&gt;&lt;br&gt;&lt;/div&gt;&lt;div&gt;FoodItemId (FK)&lt;/div&gt;&lt;div&gt;&lt;br&gt;&lt;/div&gt;&lt;div&gt;DateTime&lt;/div&gt;" style="text;strokeColor=none;fillColor=none;align=left;verticalAlign=top;spacingLeft=4;spacingRight=4;overflow=hidden;rotatable=0;points=[[0,0.5],[1,0.5]];portConstraint=eastwest;whiteSpace=wrap;html=1;" parent="5007eKSaucRuR3BvJsnx-37" vertex="1">
          <mxGeometry y="52" width="140" height="88" as="geometry" />
        </mxCell>
        <mxCell id="5007eKSaucRuR3BvJsnx-41" value="FoodItems" style="swimlane;fontStyle=0;childLayout=stackLayout;horizontal=1;startSize=26;fillColor=none;horizontalStack=0;resizeParent=1;resizeParentMax=0;resizeLast=0;collapsible=1;marginBottom=0;whiteSpace=wrap;html=1;" parent="1" vertex="1">
          <mxGeometry x="810" y="-390" width="160" height="200" as="geometry" />
        </mxCell>
        <mxCell id="5007eKSaucRuR3BvJsnx-42" value="Id (PK)" style="text;strokeColor=none;fillColor=none;align=left;verticalAlign=top;spacingLeft=4;spacingRight=4;overflow=hidden;rotatable=0;points=[[0,0.5],[1,0.5]];portConstraint=eastwest;whiteSpace=wrap;html=1;" parent="5007eKSaucRuR3BvJsnx-41" vertex="1">
          <mxGeometry y="26" width="160" height="26" as="geometry" />
        </mxCell>
        <mxCell id="5007eKSaucRuR3BvJsnx-43" value="&lt;div&gt;MealType&amp;nbsp;&lt;/div&gt;&lt;div&gt;&lt;br&gt;&lt;/div&gt;&lt;div&gt;isAvailable&lt;/div&gt;&lt;div&gt;&lt;br&gt;&lt;/div&gt;&lt;div&gt;Name&lt;/div&gt;&lt;div&gt;&lt;br&gt;&lt;/div&gt;&lt;div&gt;Price&lt;br&gt;&lt;br&gt;FoodItemType&lt;/div&gt;" style="text;strokeColor=none;fillColor=none;align=left;verticalAlign=top;spacingLeft=4;spacingRight=4;overflow=hidden;rotatable=0;points=[[0,0.5],[1,0.5]];portConstraint=eastwest;whiteSpace=wrap;html=1;" parent="5007eKSaucRuR3BvJsnx-41" vertex="1">
          <mxGeometry y="52" width="160" height="148" as="geometry" />
        </mxCell>
        <mxCell id="5007eKSaucRuR3BvJsnx-44" value="Ratings" style="swimlane;fontStyle=0;childLayout=stackLayout;horizontal=1;startSize=26;fillColor=none;horizontalStack=0;resizeParent=1;resizeParentMax=0;resizeLast=0;collapsible=1;marginBottom=0;whiteSpace=wrap;html=1;" parent="1" vertex="1">
          <mxGeometry x="1030" y="10" width="140" height="200" as="geometry" />
        </mxCell>
        <mxCell id="5007eKSaucRuR3BvJsnx-45" value="Id (PK)" style="text;strokeColor=none;fillColor=none;align=left;verticalAlign=top;spacingLeft=4;spacingRight=4;overflow=hidden;rotatable=0;points=[[0,0.5],[1,0.5]];portConstraint=eastwest;whiteSpace=wrap;html=1;" parent="5007eKSaucRuR3BvJsnx-44" vertex="1">
          <mxGeometry y="26" width="140" height="26" as="geometry" />
        </mxCell>
        <mxCell id="5007eKSaucRuR3BvJsnx-46" value="&lt;div&gt;UserId (FK)&amp;nbsp;&lt;/div&gt;&lt;div&gt;&lt;br&gt;&lt;/div&gt;&lt;div&gt;FoodItemsId (FK)&lt;/div&gt;&lt;div&gt;&lt;br&gt;&lt;/div&gt;&lt;div&gt;Rating&lt;/div&gt;&lt;div&gt;&lt;br&gt;&lt;/div&gt;&lt;div&gt;Feedback&lt;/div&gt;&lt;div&gt;&lt;br&gt;&lt;/div&gt;&lt;div&gt;DateTime&lt;/div&gt;" style="text;strokeColor=none;fillColor=none;align=left;verticalAlign=top;spacingLeft=4;spacingRight=4;overflow=hidden;rotatable=0;points=[[0,0.5],[1,0.5]];portConstraint=eastwest;whiteSpace=wrap;html=1;" parent="5007eKSaucRuR3BvJsnx-44" vertex="1">
          <mxGeometry y="52" width="140" height="148" as="geometry" />
        </mxCell>
        <mxCell id="5007eKSaucRuR3BvJsnx-48" value="MonthlyReport" style="swimlane;fontStyle=0;childLayout=stackLayout;horizontal=1;startSize=26;fillColor=none;horizontalStack=0;resizeParent=1;resizeParentMax=0;resizeLast=0;collapsible=1;marginBottom=0;whiteSpace=wrap;html=1;" parent="1" vertex="1">
          <mxGeometry x="1030" y="-610" width="140" height="190" as="geometry" />
        </mxCell>
        <mxCell id="5007eKSaucRuR3BvJsnx-49" value="Id (PK)" style="text;strokeColor=none;fillColor=none;align=left;verticalAlign=top;spacingLeft=4;spacingRight=4;overflow=hidden;rotatable=0;points=[[0,0.5],[1,0.5]];portConstraint=eastwest;whiteSpace=wrap;html=1;" parent="5007eKSaucRuR3BvJsnx-48" vertex="1">
          <mxGeometry y="26" width="140" height="26" as="geometry" />
        </mxCell>
        <mxCell id="5007eKSaucRuR3BvJsnx-50" value="&lt;div&gt;&lt;span style=&quot;background-color: initial;&quot;&gt;FoodItemsId (FK)&lt;/span&gt;&lt;br&gt;&lt;/div&gt;&lt;div&gt;&lt;br&gt;FoodItemName&lt;/div&gt;&lt;div&gt;&lt;br&gt;&lt;/div&gt;&lt;div&gt;FoodItemType&lt;/div&gt;&lt;div&gt;&lt;br&gt;&lt;/div&gt;&lt;div&gt;AverageRatings&lt;/div&gt;&lt;div&gt;&lt;br&gt;&lt;/div&gt;&lt;div&gt;Sentiment&lt;/div&gt;" style="text;strokeColor=none;fillColor=none;align=left;verticalAlign=top;spacingLeft=4;spacingRight=4;overflow=hidden;rotatable=0;points=[[0,0.5],[1,0.5]];portConstraint=eastwest;whiteSpace=wrap;html=1;" parent="5007eKSaucRuR3BvJsnx-48" vertex="1">
          <mxGeometry y="52" width="140" height="138" as="geometry" />
        </mxCell>
        <mxCell id="5007eKSaucRuR3BvJsnx-51" value="Notifications" style="swimlane;fontStyle=0;childLayout=stackLayout;horizontal=1;startSize=26;fillColor=none;horizontalStack=0;resizeParent=1;resizeParentMax=0;resizeLast=0;collapsible=1;marginBottom=0;whiteSpace=wrap;html=1;" parent="1" vertex="1">
          <mxGeometry x="1090" y="-318" width="140" height="170" as="geometry" />
        </mxCell>
        <mxCell id="5007eKSaucRuR3BvJsnx-52" value="Id (PK)" style="text;strokeColor=none;fillColor=none;align=left;verticalAlign=top;spacingLeft=4;spacingRight=4;overflow=hidden;rotatable=0;points=[[0,0.5],[1,0.5]];portConstraint=eastwest;whiteSpace=wrap;html=1;" parent="5007eKSaucRuR3BvJsnx-51" vertex="1">
          <mxGeometry y="26" width="140" height="26" as="geometry" />
        </mxCell>
        <mxCell id="5007eKSaucRuR3BvJsnx-53" value="&lt;div&gt;&lt;span style=&quot;background-color: initial;&quot;&gt;FoodItemsId (FK)&lt;/span&gt;&lt;br&gt;&lt;/div&gt;&lt;div&gt;&lt;br&gt;&lt;/div&gt;&lt;div&gt;Price&lt;/div&gt;&lt;div&gt;&lt;br&gt;&lt;/div&gt;&lt;div&gt;DateTime&lt;br&gt;&lt;br&gt;FoodItemType&lt;/div&gt;" style="text;strokeColor=none;fillColor=none;align=left;verticalAlign=top;spacingLeft=4;spacingRight=4;overflow=hidden;rotatable=0;points=[[0,0.5],[1,0.5]];portConstraint=eastwest;whiteSpace=wrap;html=1;" parent="5007eKSaucRuR3BvJsnx-51" vertex="1">
          <mxGeometry y="52" width="140" height="118" as="geometry" />
        </mxCell>
        <mxCell id="5007eKSaucRuR3BvJsnx-54" value="" style="edgeStyle=entityRelationEdgeStyle;fontSize=12;html=1;endArrow=ERzeroToMany;startArrow=ERmandOne;rounded=0;exitX=1.007;exitY=0.167;exitDx=0;exitDy=0;exitPerimeter=0;entryX=-0.026;entryY=0.305;entryDx=0;entryDy=0;entryPerimeter=0;" parent="1" source="5007eKSaucRuR3BvJsnx-27" target="5007eKSaucRuR3BvJsnx-33" edge="1">
          <mxGeometry width="100" height="100" relative="1" as="geometry">
            <mxPoint x="360" y="-260" as="sourcePoint" />
            <mxPoint x="410" y="100" as="targetPoint" />
            <Array as="points">
              <mxPoint x="335.94" y="280" />
              <mxPoint x="405.94" y="50" />
              <mxPoint x="340" y="-228" />
            </Array>
          </mxGeometry>
        </mxCell>
        <mxCell id="5007eKSaucRuR3BvJsnx-56" value="" style="edgeStyle=entityRelationEdgeStyle;fontSize=12;html=1;endArrow=ERmandOne;startArrow=ERmandOne;rounded=0;entryX=0;entryY=0.5;entryDx=0;entryDy=0;exitX=1.029;exitY=0.082;exitDx=0;exitDy=0;exitPerimeter=0;" parent="1" source="5007eKSaucRuR3BvJsnx-34" target="5007eKSaucRuR3BvJsnx-32" edge="1">
          <mxGeometry width="100" height="100" relative="1" as="geometry">
            <mxPoint x="360" y="360" as="sourcePoint" />
            <mxPoint x="460" y="260" as="targetPoint" />
          </mxGeometry>
        </mxCell>
        <mxCell id="5007eKSaucRuR3BvJsnx-57" value="" style="edgeStyle=entityRelationEdgeStyle;fontSize=12;html=1;endArrow=ERzeroToMany;startArrow=ERmandOne;rounded=0;exitX=1.007;exitY=0.118;exitDx=0;exitDy=0;exitPerimeter=0;entryX=-0.021;entryY=0.086;entryDx=0;entryDy=0;entryPerimeter=0;" parent="1" source="5007eKSaucRuR3BvJsnx-31" target="5007eKSaucRuR3BvJsnx-37" edge="1">
          <mxGeometry width="100" height="100" relative="1" as="geometry">
            <mxPoint x="500" y="280" as="sourcePoint" />
            <mxPoint x="600" y="180" as="targetPoint" />
            <Array as="points">
              <mxPoint x="340" y="397" />
              <mxPoint x="587" y="-100" />
              <mxPoint x="600" y="-40" />
            </Array>
          </mxGeometry>
        </mxCell>
        <mxCell id="5007eKSaucRuR3BvJsnx-58" value="" style="edgeStyle=entityRelationEdgeStyle;fontSize=12;html=1;endArrow=ERzeroToMany;startArrow=ERmandOne;rounded=0;exitX=1;exitY=0.5;exitDx=0;exitDy=0;entryX=-0.029;entryY=0.08;entryDx=0;entryDy=0;entryPerimeter=0;" parent="1" source="5007eKSaucRuR3BvJsnx-32" target="5007eKSaucRuR3BvJsnx-44" edge="1">
          <mxGeometry width="100" height="100" relative="1" as="geometry">
            <mxPoint x="500" y="280" as="sourcePoint" />
            <mxPoint x="560" y="220" as="targetPoint" />
            <Array as="points">
              <mxPoint x="510" y="-250" />
              <mxPoint x="610" y="-40" />
              <mxPoint x="620" y="40" />
              <mxPoint x="720" y="-100" />
              <mxPoint x="690" y="-160" />
              <mxPoint x="550" y="20" />
              <mxPoint x="710" y="-120" />
              <mxPoint x="640" y="-60" />
              <mxPoint x="680" y="-90" />
            </Array>
          </mxGeometry>
        </mxCell>
        <mxCell id="5007eKSaucRuR3BvJsnx-59" value="" style="edgeStyle=entityRelationEdgeStyle;fontSize=12;html=1;endArrow=ERzeroToMany;startArrow=ERmandOne;rounded=0;exitX=0.019;exitY=0.06;exitDx=0;exitDy=0;exitPerimeter=0;entryX=1;entryY=0.5;entryDx=0;entryDy=0;" parent="1" source="5007eKSaucRuR3BvJsnx-41" target="5007eKSaucRuR3BvJsnx-38" edge="1">
          <mxGeometry width="100" height="100" relative="1" as="geometry">
            <mxPoint x="640" y="50" as="sourcePoint" />
            <mxPoint x="740" y="-50" as="targetPoint" />
          </mxGeometry>
        </mxCell>
        <mxCell id="5007eKSaucRuR3BvJsnx-62" value="" style="edgeStyle=entityRelationEdgeStyle;fontSize=12;html=1;endArrow=ERzeroToMany;startArrow=ERmandOne;rounded=0;exitX=0.994;exitY=0.075;exitDx=0;exitDy=0;exitPerimeter=0;entryX=0;entryY=0.5;entryDx=0;entryDy=0;" parent="1" source="5007eKSaucRuR3BvJsnx-41" target="5007eKSaucRuR3BvJsnx-45" edge="1">
          <mxGeometry width="100" height="100" relative="1" as="geometry">
            <mxPoint x="1040" y="-40" as="sourcePoint" />
            <mxPoint x="1140" y="-140" as="targetPoint" />
          </mxGeometry>
        </mxCell>
        <mxCell id="5007eKSaucRuR3BvJsnx-63" value="" style="edgeStyle=entityRelationEdgeStyle;fontSize=12;html=1;endArrow=ERmandOne;startArrow=ERmandOne;rounded=0;exitX=1;exitY=0.5;exitDx=0;exitDy=0;entryX=-0.014;entryY=0.084;entryDx=0;entryDy=0;entryPerimeter=0;" parent="1" source="5007eKSaucRuR3BvJsnx-42" target="5007eKSaucRuR3BvJsnx-48" edge="1">
          <mxGeometry width="100" height="100" relative="1" as="geometry">
            <mxPoint x="900" y="220" as="sourcePoint" />
            <mxPoint x="920" y="-10" as="targetPoint" />
          </mxGeometry>
        </mxCell>
        <mxCell id="5007eKSaucRuR3BvJsnx-64" value="" style="edgeStyle=entityRelationEdgeStyle;fontSize=12;html=1;endArrow=ERzeroToMany;startArrow=ERmandOne;rounded=0;exitX=1.013;exitY=0.101;exitDx=0;exitDy=0;exitPerimeter=0;entryX=-0.021;entryY=0.065;entryDx=0;entryDy=0;entryPerimeter=0;" parent="1" source="5007eKSaucRuR3BvJsnx-43" target="5007eKSaucRuR3BvJsnx-51" edge="1">
          <mxGeometry width="100" height="100" relative="1" as="geometry">
            <mxPoint x="1040" y="-40" as="sourcePoint" />
            <mxPoint x="1140" y="-140" as="targetPoint" />
            <Array as="points">
              <mxPoint x="1290" y="-30" />
            </Array>
          </mxGeometry>
        </mxCell>
      </root>
    </mxGraphModel>
  </diagram>
</mxfile>
